HIERARCHY
ROOT Hips
{
	OFFSET 0.000000 0.000000 0.000000
	CHANNELS 6 Xposition Yposition Zposition Xrotation Yrotation Zrotation
	JOINT LeftUpLeg_virtual
	{
		OFFSET 0.000000 0.000000 0.000000
		CHANNELS 3 Xrotation Yrotation Zrotation
		JOINT LeftUpLeg
		{
			OFFSET 15.427100 -6.655098 0.678600
			CHANNELS 3 Xrotation Yrotation Zrotation
			JOINT LeftLeg
			{
				OFFSET 4.081073 -39.591068 13.024000
				CHANNELS 3 Xrotation Yrotation Zrotation
				JOINT LeftFoot
				{
					OFFSET -4.081074 -37.707932 -15.979700
					CHANNELS 3 Xrotation Yrotation Zrotation
					JOINT LeftToeBase
					{
						OFFSET 5.346399 -15.068900 20.645000
						CHANNELS 3 Xrotation Yrotation Zrotation
						JOINT LeftToe_End
						{
							OFFSET 2.754700 0.931300 11.300900
							CHANNELS 3 Xrotation Yrotation Zrotation
							End Site
							{
								OFFSET 0 0 0
							}
						}
					}
				}
			}
		}
	}
	JOINT RightUpLeg_virtual
	{
		OFFSET 0.000000 0.000000 0.000000
		CHANNELS 3 Xrotation Yrotation Zrotation
		JOINT RightUpLeg
		{
			OFFSET -15.569500 -6.655098 0.678600
			CHANNELS 3 Xrotation Yrotation Zrotation
			JOINT RightLeg
			{
				OFFSET -4.081825 -39.591045 13.023800
				CHANNELS 3 Xrotation Yrotation Zrotation
				JOINT RightFoot
				{
					OFFSET 4.081824 -37.707954 -15.979600
					CHANNELS 3 Xrotation Yrotation Zrotation
					JOINT RightToeBase
					{
						OFFSET -5.346400 -15.068900 20.645000
						CHANNELS 3 Xrotation Yrotation Zrotation
						JOINT RightToe_End
						{
							OFFSET -2.754700 0.931300 11.300900
							CHANNELS 3 Xrotation Yrotation Zrotation
							End Site
							{
								OFFSET 0 0 0
							}
						}
					}
				}
			}
		}
	}
	JOINT Spine_virtual
	{
		OFFSET 0.000000 0.000000 0.000000
		CHANNELS 3 Xrotation Yrotation Zrotation
		JOINT Spine
		{
			OFFSET -0.279200 12.230698 -2.892100
			CHANNELS 3 Xrotation Yrotation Zrotation
			JOINT Spine1
			{
				OFFSET -0.232667 10.192268 -1.242267
				CHANNELS 3 Xrotation Yrotation Zrotation
				JOINT Spine1_split
				{
					OFFSET -0.232667 10.192268 -1.242267
					CHANNELS 3 Xrotation Yrotation Zrotation
					JOINT Spine2
					{
						OFFSET -0.232667 10.192268 -1.242267
						CHANNELS 3 Xrotation Yrotation Zrotation
						JOINT Neck_virtual
						{
							OFFSET 0.000000 0.000000 0.000000
							CHANNELS 3 Xrotation Yrotation Zrotation
							JOINT Neck
							{
								OFFSET -0.418800 17.814194 8.416900
								CHANNELS 3 Xrotation Yrotation Zrotation
								JOINT Head
								{
									OFFSET 0.000000 7.031097 3.806800
									CHANNELS 3 Xrotation Yrotation Zrotation
									JOINT HeadTop_End
									{
										OFFSET 0.000000 24.646606 12.978600
										CHANNELS 3 Xrotation Yrotation Zrotation
										End Site
										{
											OFFSET 0 0 0
										}
									}
								}
							}
						}
						JOINT LeftShoulder_virtual
						{
							OFFSET 0.000000 0.000000 0.000000
							CHANNELS 3 Xrotation Yrotation Zrotation
							JOINT LeftShoulder
							{
								OFFSET 8.476499 7.247704 -3.868750
								CHANNELS 3 Xrotation Yrotation Zrotation
								JOINT LeftShoulder_split
								{
									OFFSET 8.476499 7.247704 -3.868750
									CHANNELS 3 Xrotation Yrotation Zrotation
									JOINT LeftArm
									{
										OFFSET 9.308998 -2.777710 0.208600
										CHANNELS 3 Xrotation Yrotation Zrotation
										JOINT LeftForeArm
										{
											OFFSET 29.972298 0.000000 0.000000
											CHANNELS 3 Xrotation Yrotation Zrotation
											JOINT LeftHand
											{
												OFFSET 26.026505 0.000000 0.000000
												CHANNELS 3 Xrotation Yrotation Zrotation
												End Site
												{
													OFFSET 0 0 0
												}
											}
										}
									}
								}
							}
						}
						JOINT RightShoulder_virtual
						{
							OFFSET 0.000000 0.000000 0.000000
							CHANNELS 3 Xrotation Yrotation Zrotation
							JOINT RightShoulder
							{
								OFFSET -7.570500 7.247704 -3.868750
								CHANNELS 3 Xrotation Yrotation Zrotation
								JOINT RightShoulder_split
								{
									OFFSET -7.570500 7.247704 -3.868750
									CHANNELS 3 Xrotation Yrotation Zrotation
									JOINT RightArm
									{
										OFFSET -9.308998 -2.777710 0.208500
										CHANNELS 3 Xrotation Yrotation Zrotation
										JOINT RightForeArm
										{
											OFFSET -29.972300 0.000000 0.000000
											CHANNELS 3 Xrotation Yrotation Zrotation
											JOINT RightHand
											{
												OFFSET -26.026505 0.000000 0.000000
												CHANNELS 3 Xrotation Yrotation Zrotation
												End Site
												{
													OFFSET 0 0 0
												}
											}
										}
									}
								}
							}
						}
					}
				}
			}
		}
	}
}
MOTION
Frames: 4
Frame Time: 0.03333333
-3.490725 78.644104 -6.489513 0.000000 0.000000 0.000000 7.926576 -53.249439 9.408442 -33.292149 17.879658 30.443768 36.263954 -10.864190 -7.686618 -7.634599 2.834199 -13.854816 -0.205993 -1.516776 -3.020916 0.000000 0.000000 0.000000 7.253395 -51.753907 8.951634 -26.222102 -3.752227 -28.786915 42.761574 15.640191 -0.086030 -20.007359 -9.176480 30.261211 7.534905 7.706525 -10.453665 0.000000 0.000000 0.000000 4.065595 -44.251549 6.723340 8.276498 4.264514 -5.663192 9.942922 -3.583072 -4.175097 0.266493 -0.517237 0.072909 0.000000 0.000000 0.000000 14.015998 -0.624544 -4.535079 -14.311718 25.155788 7.178379 -20.296715 38.472936 16.949908 0.000000 0.000000 0.000000 13.738336 -3.216868 -4.944509 -0.377754 -0.250259 -2.500375 -2.694723 -4.559777 -0.532805 -27.684369 -8.046540 -32.352922 14.966015 -31.405664 10.145717 0.000000 0.000000 0.000000 15.421956 -1.734374 -4.204132 -9.740680 3.667500 -0.110781 5.079194 3.613738 2.899899 -42.258418 -19.760383 35.388422 174.540703 69.146745 -173.931368 0.000000 0.000000 0.000000 
-3.491889 78.520035 -6.423779 0.000000 0.000000 0.000000 7.793765 -53.379786 9.402141 -33.059113 18.100213 30.465540 36.496573 -11.221351 -7.617503 -7.773012 2.805962 -13.862556 -0.681260 -1.545406 -2.850468 0.000000 0.000000 0.000000 7.176332 -51.830566 8.941526 -26.293105 -3.849795 -28.836963 43.078416 15.552233 -0.011920 -19.897027 -9.382089 29.773959 7.025822 7.748450 -10.268202 0.000000 0.000000 0.000000 3.306069 -44.385656 6.437037 7.981728 4.172244 -5.700418 9.714777 -3.551560 -4.182115 0.187318 -0.396131 0.081297 0.000000 0.000000 0.000000 13.664038 -0.606412 -4.599767 -14.083387 25.139563 7.105621 -20.936174 39.184519 16.872826 0.000000 0.000000 0.000000 13.602545 -3.214751 -4.960321 -0.337760 -0.165624 -2.810265 -2.812921 -4.128796 -0.646864 -28.077899 -8.963465 -32.911950 15.524327 -32.025944 10.485363 0.000000 0.000000 0.000000 15.196694 -1.748401 -4.248703 -9.824078 3.798867 0.410805 5.662602 4.496190 4.302896 -41.310012 -20.140899 36.614117 175.094208 71.022349 -174.354116 0.000000 0.000000 0.000000 
-3.520655 78.525429 -6.272312 0.000000 0.000000 0.000000 7.735372 -53.620820 9.357576 -32.619064 18.496296 30.480044 36.591734 -11.559019 -7.505507 -8.097275 2.904865 -13.545659 -1.343755 -1.564956 -2.733909 0.000000 0.000000 0.000000 7.141694 -51.994173 8.855818 -26.090433 -4.269220 -28.832827 42.919734 15.440213 0.060061 -19.715348 -9.517164 29.389723 6.464732 7.768959 -10.162601 0.000000 0.000000 0.000000 2.924098 -44.256450 6.199953 7.288252 4.042909 -5.733935 9.174827 -3.531793 -4.248057 0.169964 -0.324427 0.061236 0.000000 0.000000 0.000000 13.012686 -0.573217 -4.694584 -14.201262 25.282396 6.883277 -21.648016 40.164029 16.943493 0.000000 0.000000 0.000000 13.059916 -3.188516 -5.010340 -0.334785 -0.075044 -3.591281 -3.232237 -3.485675 -0.723338 -28.666359 -9.857641 -33.895948 15.732781 -32.594236 10.416663 0.000000 0.000000 0.000000 14.569307 -1.744790 -4.296410 -9.961316 3.696382 1.385067 6.048217 4.828435 4.004812 -40.704236 -20.110471 38.857438 174.522330 74.467572 -173.701505 0.000000 0.000000 0.000000 
-3.590755 78.742027 -6.133129 0.000000 0.000000 0.000000 7.860219 -53.824992 9.314820 -32.096596 18.935149 30.498615 36.301789 -11.793708 -7.403053 -8.430663 3.097295 -13.064178 -1.734731 -1.566397 -2.784470 0.000000 0.000000 0.000000 7.247247 -52.191313 8.775568 -25.668206 -4.891048 -28.742764 42.072801 15.332694 0.134333 -19.405175 -9.469833 29.247591 6.016353 7.774704 -10.168103 0.000000 0.000000 0.000000 3.185601 -43.952530 6.157259 6.334423 3.910870 -5.712746 8.452324 -3.522131 -4.360869 0.166348 -0.291594 0.047409 0.000000 0.000000 0.000000 12.199697 -0.521666 -4.798955 -14.731842 25.585713 6.569959 -22.595777 41.543970 17.125748 0.000000 0.000000 0.000000 12.254227 -3.146403 -5.111135 -0.372406 -0.078593 -4.642322 -3.912569 -2.654302 -0.666503 -29.207699 -10.363476 -35.052944 15.713484 -33.230735 10.067122 0.000000 0.000000 0.000000 13.675469 -1.733715 -4.355699 -10.084037 3.373480 2.579722 6.148246 4.284027 2.647661 -40.776762 -19.687756 41.500725 172.286112 78.601585 -171.466462 0.000000 0.000000 0.000000 
